<svg xmlns="http://www.w3.org/2000/svg" xmlns:xlink="http://www.w3.org/1999/xlink" viewBox="0 0 64 64"><defs><style>.cls-1{fill:url(#linear-gradient);}.cls-2{fill:url(#linear-gradient-2);}.cls-3{fill:url(#linear-gradient-3);}.cls-4{fill:#77cacb;}.cls-5{fill:url(#linear-gradient-4);}.cls-6{fill:#c7cdd8;}.cls-7{fill:url(#linear-gradient-5);}.cls-8{fill:url(#linear-gradient-6);}.cls-9{fill:url(#linear-gradient-7);}.cls-10{fill:url(#linear-gradient-8);}.cls-11{fill:#fff;}</style><linearGradient id="linear-gradient" x1="32" y1="13" x2="32" y2="8" gradientUnits="userSpaceOnUse"><stop offset="0" stop-color="#d4d8e1"/><stop offset="1" stop-color="#f3f4f5"/></linearGradient><linearGradient id="linear-gradient-2" x1="32" y1="63" x2="32" y2="23" gradientUnits="userSpaceOnUse"><stop offset="0" stop-color="#9dd5df"/><stop offset="1" stop-color="#c3e1f5"/></linearGradient><linearGradient id="linear-gradient-3" y1="56" y2="32" xlink:href="#linear-gradient-2"/><linearGradient id="linear-gradient-4" x1="32" y1="23" x2="32" y2="17" xlink:href="#linear-gradient"/><linearGradient id="linear-gradient-5" x1="32" y1="17" x2="32" y2="13" xlink:href="#linear-gradient"/><linearGradient id="linear-gradient-6" x1="27" y1="4.5" x2="45" y2="4.5" xlink:href="#linear-gradient"/><linearGradient id="linear-gradient-7" x1="32" y1="56" x2="32" y2="34" xlink:href="#linear-gradient"/><linearGradient id="linear-gradient-8" x1="32" y1="52" x2="32" y2="38" gradientUnits="userSpaceOnUse"><stop offset="0" stop-color="#7aa8d7"/><stop offset="1" stop-color="#c3d2e7"/></linearGradient></defs><title>Hand Sanitizer</title><g id="Hand_Sanitizer" data-name="Hand Sanitizer"><rect class="cls-1" x="30" y="8" width="4" height="5"/><path class="cls-2" d="M38,23H26l-7.79,3.89A4,4,0,0,0,16,30.47V59a4,4,0,0,0,4,4H43a5,5,0,0,0,5-5V31.09a5,5,0,0,0-2.76-4.47Z"/><rect class="cls-3" x="16" y="32" width="32" height="24" transform="translate(64 88) rotate(180)"/><path class="cls-4" d="M48,56v2a5,5,0,0,1-5,5H20a4,4,0,0,1-4-4V57a4,4,0,0,0,4,4H43A5,5,0,0,0,48,56Z"/><rect class="cls-5" x="26" y="17" width="12" height="6"/><rect class="cls-6" x="26" y="21" width="12" height="2"/><rect class="cls-7" x="28" y="13" width="8" height="4"/><path class="cls-8" d="M28.94,1H27V8H37a3,3,0,0,1,3-3h5V2h0A128.72,128.72,0,0,0,28.94,1Z"/><rect class="cls-9" x="16" y="34" width="32" height="22"/><rect class="cls-6" x="16" y="54" width="32" height="2"/><circle class="cls-10" cx="32" cy="45" r="7"/><path class="cls-11" d="M35,44H33V42a1,1,0,0,0-2,0v2H29a1,1,0,0,0,0,2h2v2a1,1,0,0,0,2,0V46h2a1,1,0,0,0,0-2Z"/></g></svg>