<svg xmlns="http://www.w3.org/2000/svg" xmlns:xlink="http://www.w3.org/1999/xlink" viewBox="0 0 64 64"><defs><style>.cls-1{fill:url(#linear-gradient);}.cls-2{fill:#c7cdd8;}.cls-3{fill:#8288a1;}</style><linearGradient id="linear-gradient" x1="32" y1="52" x2="32" y2="12" gradientUnits="userSpaceOnUse"><stop offset="0" stop-color="#d4d8e1"/><stop offset="1" stop-color="#f3f4f5"/></linearGradient></defs><title>Masker N95</title><g id="Masker_N95" data-name="Masker N95"><path class="cls-1" d="M52,30c0,7-6,22-20,22S12,37,12,30,28,12,32,12,52,23,52,30Z"/><path class="cls-2" d="M52,30c0,7-6,22-20,22S12,37,12,30a4.88,4.88,0,0,1,.13-1.12C13,36.37,19.15,49,32,49S51,36.37,51.87,28.88A4.88,4.88,0,0,1,52,30Z"/><path class="cls-3" d="M40,22h-.11a8.76,8.76,0,0,1-3.43-1.15,10.36,10.36,0,0,1-2.14-2C33.53,17.88,32.78,17,32,17h0c-.78,0-1.53.86-2.32,1.78a10.36,10.36,0,0,1-2.14,2A8.76,8.76,0,0,1,24.11,22a1,1,0,1,1-.22-2,7.2,7.2,0,0,0,2.57-.85,9.23,9.23,0,0,0,1.71-1.67C29.17,16.33,30.31,15,32,15H32c1.65,0,2.79,1.31,3.79,2.47a9.23,9.23,0,0,0,1.71,1.67,7.2,7.2,0,0,0,2.57.85A1,1,0,0,1,40,22Z"/><path class="cls-2" d="M56,50c-3.32,0-9.57-7.82-10.79-9.39a1,1,0,1,1,1.58-1.22C50,43.53,54.45,48,56,48c2,0,6-7.87,6-17,0-11.61-1.78-18-5-18s-7.79,8-10,13.07a1,1,0,1,1-1.84-.79C45.83,23.82,51.5,11,57,11c4.71,0,7,6.54,7,20C64,40.23,59.89,50,56,50Z"/><path class="cls-2" d="M8,50c-3.89,0-8-9.77-8-19C0,17.54,2.29,11,7,11c5.5,0,11.17,12.82,11.8,14.28a1,1,0,1,1-1.84.79C14.79,21,10.16,13,7,13S2,19.39,2,31c0,9.13,4,17,6,17,1.55,0,6-4.47,9.21-8.61a1,1,0,0,1,1.58,1.22C17.57,42.18,11.32,50,8,50Z"/><path class="cls-2" d="M32,37a40.5,40.5,0,0,1-14.36-2.36,1,1,0,1,1,.74-1.86A38.46,38.46,0,0,0,32,35a38.46,38.46,0,0,0,13.62-2.22,1,1,0,1,1,.74,1.86A40.5,40.5,0,0,1,32,37Z"/><path class="cls-2" d="M32,43a49.32,49.32,0,0,1-7.15-.51,1,1,0,1,1,.3-2,48.37,48.37,0,0,0,13.7,0,1,1,0,1,1,.3,2A49.32,49.32,0,0,1,32,43Z"/><path class="cls-2" d="M32,31a49.32,49.32,0,0,1-7.15-.51,1,1,0,0,1,.3-2,48.37,48.37,0,0,0,13.7,0,1,1,0,0,1,.3,2A49.32,49.32,0,0,1,32,31Z"/></g></svg>