<svg xmlns="http://www.w3.org/2000/svg" xmlns:xlink="http://www.w3.org/1999/xlink" viewBox="0 0 64 64"><defs><style>.cls-1{fill:url(#linear-gradient);}.cls-2{fill:url(#linear-gradient-2);}.cls-3{fill:url(#linear-gradient-3);}.cls-4{fill:#eab39b;}.cls-5{fill:url(#linear-gradient-4);}.cls-6{fill:url(#linear-gradient-5);}.cls-7{fill:url(#linear-gradient-6);}.cls-8{fill:url(#linear-gradient-7);}</style><linearGradient id="linear-gradient" x1="32" y1="25" x2="32" y2="1" gradientUnits="userSpaceOnUse"><stop offset="0" stop-color="#da5466"/><stop offset="1" stop-color="#f4929c"/></linearGradient><linearGradient id="linear-gradient-2" x1="32" y1="43" x2="32" y2="30" gradientUnits="userSpaceOnUse"><stop offset="0" stop-color="#f2c4b0"/><stop offset="1" stop-color="#ffe3d7"/></linearGradient><linearGradient id="linear-gradient-3" y1="63" y2="43" xlink:href="#linear-gradient-2"/><linearGradient id="linear-gradient-4" x1="54" y1="43" x2="54" y2="30" xlink:href="#linear-gradient-2"/><linearGradient id="linear-gradient-5" x1="54" y1="63" x2="54" y2="43" xlink:href="#linear-gradient-2"/><linearGradient id="linear-gradient-6" x1="10" y1="43" x2="10" y2="30" xlink:href="#linear-gradient-2"/><linearGradient id="linear-gradient-7" x1="10" y1="63" x2="10" y2="43" xlink:href="#linear-gradient-2"/></defs><title>No Crowd</title><g id="No_Crowd" data-name="No Crowd"><path class="cls-1" d="M32,1A12,12,0,1,0,44,13,12,12,0,0,0,32,1ZM24,13A8,8,0,0,1,36.06,6.11l-11,11A8,8,0,0,1,24,13Zm8,8a8,8,0,0,1-4.06-1.11l11-11A8,8,0,0,1,32,21Z"/><rect class="cls-2" x="27" y="30" width="10" height="13" rx="5"/><path class="cls-3" d="M42,49V61a2,2,0,0,1-2,2,1.85,1.85,0,0,1-.81-.18h0A2,2,0,0,1,38,61v2H26V61a2,2,0,0,1-1.18,1.82h0A1.85,1.85,0,0,1,24,63a2,2,0,0,1-2-2V49a6,6,0,0,1,6-6h8A6,6,0,0,1,42,49Z"/><path class="cls-4" d="M27.87,48.88V49l-.73,11-.2,3H26V47A1.88,1.88,0,0,1,27.87,48.88Z"/><path class="cls-4" d="M38,47V63h-.93l-.21-3-.73-11v-.12A1.88,1.88,0,0,1,38,47Z"/><path class="cls-4" d="M37,36v2a5,5,0,0,1-10,0V36a5,5,0,0,0,10,0Z"/><rect class="cls-5" x="49" y="30" width="10" height="13" rx="5"/><path class="cls-6" d="M64,49V61a2,2,0,0,1-2,2,1.85,1.85,0,0,1-.81-.18h0A2,2,0,0,1,60,61v2H48V61a2,2,0,0,1-1.18,1.82h0A1.85,1.85,0,0,1,46,63a2,2,0,0,1-2-2V49a6,6,0,0,1,6-6h8A6,6,0,0,1,64,49Z"/><path class="cls-4" d="M49.87,48.88V49l-.73,11-.2,3H48V47A1.88,1.88,0,0,1,49.87,48.88Z"/><path class="cls-4" d="M60,47V63h-.93l-.21-3-.73-11v-.12A1.88,1.88,0,0,1,60,47Z"/><path class="cls-4" d="M59,36v2a5,5,0,0,1-10,0V36a5,5,0,0,0,10,0Z"/><rect class="cls-7" x="5" y="30" width="10" height="13" rx="5"/><path class="cls-8" d="M20,49V61a2,2,0,0,1-2,2,1.85,1.85,0,0,1-.81-.18h0A2,2,0,0,1,16,61v2H4V61a2,2,0,0,1-1.18,1.82h0A1.85,1.85,0,0,1,2,63a2,2,0,0,1-2-2V49a6,6,0,0,1,6-6h8A6,6,0,0,1,20,49Z"/><path class="cls-4" d="M5.87,48.88V49L5.14,60l-.2,3H4V47A1.88,1.88,0,0,1,5.87,48.88Z"/><path class="cls-4" d="M16,47V63h-.93l-.21-3-.73-11v-.12A1.88,1.88,0,0,1,16,47Z"/><path class="cls-4" d="M15,36v2A5,5,0,0,1,5,38V36a5,5,0,0,0,10,0Z"/></g></svg>