<svg id="Layer_1" height="512" viewBox="0 0 512 512" width="512" xmlns="http://www.w3.org/2000/svg" data-name="Layer 1"><path d="m215.344 377.361a91.661 91.661 0 0 0 -87.283-117.8c-.685 0-1.368 0-2.05.01 2.356 55.009 39.135 101.263 89.333 117.79z"/><path d="m485.773 278.018c-10.9-34.362-38.728-61.715-82.7-81.3a8.99 8.99 0 0 1 -5.22-9.484c6.927-47.205-1.272-84.719-24.372-111.5-17.972-20.835-42.27-31.869-62.836-37.71 36.565 25.221 51.76 71.332 39.65 112.527a139.478 139.478 0 0 1 45.835 103.405v.283c48.209 5.242 86.7 44.636 90.549 93 4.789-19.854 6.921-44.561-.906-69.221z"/><path d="m281.224 287.7a32.939 32.939 0 0 1 -49.921.591l-17.013 9.9a101.675 101.675 0 0 1 10.69 81.926 130.539 130.539 0 0 0 61.527.128 101.648 101.648 0 0 1 14.348-81.945z"/><path d="m160.942 165.352a129.312 129.312 0 0 0 -34.978 84.224c.479-.007.956-.018 1.436-.018h.734a101.14 101.14 0 0 1 72.266 30.812 103.18 103.18 0 0 1 8.229 9.555l17.258-10.046a32.89 32.89 0 0 1 25.125-45.9v-10.67a101.661 101.661 0 0 1 -90.065-57.954z"/><path d="m385.77 263.652a91.587 91.587 0 0 0 -89.625 113.879c49.217-15.971 85.66-60.481 89.625-113.879z"/><path d="m233.036 266.523a22.971 22.971 0 1 0 22.971-22.923 22.974 22.974 0 0 0 -22.971 22.923z"/><path d="m156.788 155.259q-1.605-4.6-2.789-9.4a101.271 101.271 0 0 1 44.688-110.331c-15.283 3.767-33.3 11.329-48.542 26.36-26.63 26.254-38.131 67.956-34.182 123.943a5.86 5.86 0 0 1 -3.636 5.846c-45.263 18.438-74.056 45.111-85.585 79.278-8.741 25.9-6.137 52.123-.882 72.709 3.608-48.629 42.13-87.97 90.073-93.447a139.366 139.366 0 0 1 40.855-94.958z"/><path d="m346.649 160.848a101.49 101.49 0 0 1 -70.679 59.752 103.315 103.315 0 0 1 -14.963 2.367v11.011a32.9 32.9 0 0 1 25.442 45.183l20.511 11.069q3.236-3.863 6.882-7.443a101.168 101.168 0 0 1 72.286-29.132 129.422 129.422 0 0 0 -39.479-92.807z"/><path d="m381.268 456.859a102.332 102.332 0 0 1 -91.809-67.034 140.613 140.613 0 0 1 -67.833-.227 101.82 101.82 0 0 1 -141.909 51.402c10.929 11.648 26.811 24 48.072 29.642 35.808 9.5 77.273-2.018 123.242-34.238a5.98 5.98 0 0 1 6.981.08c45.271 33.316 86.688 45.916 123.101 37.416 20.9-4.873 36.931-16.126 48.253-27.059a101.988 101.988 0 0 1 -48.098 10.018z"/><path d="m168.54 157.855a91.705 91.705 0 0 0 170.169-4.122 130.056 130.056 0 0 0 -170.169 4.122z"/></svg>